<?xml version="1.0" encoding="iso-8859-1"?>
<!-- Generator: Adobe Illustrator 16.0.0, SVG Export Plug-In . SVG Version: 6.00 Build 0)  -->
<!DOCTYPE svg PUBLIC "-//W3C//DTD SVG 1.1//EN" "http://www.w3.org/Graphics/SVG/1.1/DTD/svg11.dtd">
<svg version="1.1" id="Capa_1" xmlns="http://www.w3.org/2000/svg" xmlns:xlink="http://www.w3.org/1999/xlink" x="0px" y="0px"
	 width="550.801px" height="550.8px" viewBox="0 0 550.801 550.8" style="enable-background:new 0 0 550.801 550.8;"
	 xml:space="preserve">
<g>
	<path d="M515.828,61.201H34.972C15.65,61.201,0,76.85,0,96.172v358.458C0,473.951,15.65,489.6,34.972,489.6h480.856
		c19.322,0,34.973-15.649,34.973-34.971V96.172C550.801,76.85,535.15,61.201,515.828,61.201z M507.086,445.886h-35.584
		c-4.633-12.765-36.283-21.333-83.145-38.381c-50.533-18.447-66.707-34.01-66.707-67.32c0-19.934,15.387-13.464,22.207-50.009
		c2.797-15.213,16.436-0.263,19.059-34.972c0-13.814-7.432-17.224-7.432-17.224s3.76-20.458,5.246-36.195
		c1.836-19.584-11.277-70.292-81.57-70.292c-70.206,0-83.407,50.708-81.484,70.292c1.486,15.737,5.246,36.195,5.246,36.195
		s-7.431,3.41-7.431,17.224c2.535,34.709,16.174,19.759,19.059,34.972c6.732,36.545,22.207,30.075,22.207,50.009
		c0,33.311-16.174,48.873-66.795,67.32c-46.774,17.048-78.423,25.616-83.057,38.381h-43.19V104.915h463.372V445.886z"/>
</g>
<g>
</g>
<g>
</g>
<g>
</g>
<g>
</g>
<g>
</g>
<g>
</g>
<g>
</g>
<g>
</g>
<g>
</g>
<g>
</g>
<g>
</g>
<g>
</g>
<g>
</g>
<g>
</g>
<g>
</g>
</svg>
